<mxfile host="app.diagrams.net" modified="2024-05-11T21:12:46.680Z" agent="Mozilla/5.0 (Windows NT 10.0; Win64; x64) AppleWebKit/537.36 (KHTML, like Gecko) Chrome/124.0.0.0 Safari/537.36" etag="hKBiG1na9NEMkaSZzvpN" version="24.4.0" type="google" pages="3">
  <diagram name="recommending" id="oU4ZxIg6Aas1TH5x99_F">
    <mxGraphModel dx="1195" dy="1346" grid="0" gridSize="10" guides="1" tooltips="1" connect="1" arrows="1" fold="1" page="0" pageScale="1" pageWidth="827" pageHeight="1169" math="0" shadow="0">
      <root>
        <mxCell id="0" />
        <mxCell id="1" parent="0" />
        <mxCell id="7cvgtdfPw39S4YdQVZ99-1" style="edgeStyle=none;curved=1;rounded=0;orthogonalLoop=1;jettySize=auto;html=1;exitX=0;exitY=1;exitDx=0;exitDy=0;fontSize=12;startSize=8;endSize=8;" edge="1" parent="1" source="7cvgtdfPw39S4YdQVZ99-2" target="7cvgtdfPw39S4YdQVZ99-4">
          <mxGeometry relative="1" as="geometry" />
        </mxCell>
        <mxCell id="7cvgtdfPw39S4YdQVZ99-2" value="&lt;font style=&quot;font-size: 16px;&quot;&gt;user 1&lt;/font&gt;" style="ellipse;whiteSpace=wrap;html=1;aspect=fixed;" vertex="1" parent="1">
          <mxGeometry x="154" y="15" width="80" height="80" as="geometry" />
        </mxCell>
        <mxCell id="7cvgtdfPw39S4YdQVZ99-3" style="edgeStyle=none;curved=1;rounded=0;orthogonalLoop=1;jettySize=auto;html=1;exitX=0;exitY=1;exitDx=0;exitDy=0;fontSize=12;startSize=8;endSize=8;" edge="1" parent="1" source="7cvgtdfPw39S4YdQVZ99-4" target="7cvgtdfPw39S4YdQVZ99-18">
          <mxGeometry relative="1" as="geometry" />
        </mxCell>
        <mxCell id="7cvgtdfPw39S4YdQVZ99-4" value="&lt;font style=&quot;font-size: 16px;&quot;&gt;user 2&lt;/font&gt;" style="ellipse;whiteSpace=wrap;html=1;aspect=fixed;" vertex="1" parent="1">
          <mxGeometry x="39" y="-8" width="80" height="80" as="geometry" />
        </mxCell>
        <mxCell id="7cvgtdfPw39S4YdQVZ99-5" style="edgeStyle=none;curved=1;rounded=0;orthogonalLoop=1;jettySize=auto;html=1;exitX=0.5;exitY=0;exitDx=0;exitDy=0;fontSize=12;startSize=8;endSize=8;" edge="1" parent="1" source="7cvgtdfPw39S4YdQVZ99-7" target="7cvgtdfPw39S4YdQVZ99-2">
          <mxGeometry relative="1" as="geometry" />
        </mxCell>
        <mxCell id="7cvgtdfPw39S4YdQVZ99-6" style="edgeStyle=none;curved=1;rounded=0;orthogonalLoop=1;jettySize=auto;html=1;exitX=0.5;exitY=1;exitDx=0;exitDy=0;fontSize=12;startSize=8;endSize=8;" edge="1" parent="1" source="7cvgtdfPw39S4YdQVZ99-7" target="7cvgtdfPw39S4YdQVZ99-14">
          <mxGeometry relative="1" as="geometry" />
        </mxCell>
        <mxCell id="7cvgtdfPw39S4YdQVZ99-7" value="&lt;font style=&quot;font-size: 16px;&quot;&gt;user 3&lt;/font&gt;" style="ellipse;whiteSpace=wrap;html=1;aspect=fixed;" vertex="1" parent="1">
          <mxGeometry x="127" y="139" width="80" height="80" as="geometry" />
        </mxCell>
        <mxCell id="7cvgtdfPw39S4YdQVZ99-8" style="edgeStyle=none;curved=1;rounded=0;orthogonalLoop=1;jettySize=auto;html=1;exitX=1;exitY=1;exitDx=0;exitDy=0;fontSize=12;startSize=8;endSize=8;" edge="1" parent="1" source="7cvgtdfPw39S4YdQVZ99-9" target="7cvgtdfPw39S4YdQVZ99-4">
          <mxGeometry relative="1" as="geometry" />
        </mxCell>
        <mxCell id="7cvgtdfPw39S4YdQVZ99-9" value="&lt;font style=&quot;font-size: 16px;&quot;&gt;user 4&lt;/font&gt;" style="ellipse;whiteSpace=wrap;html=1;aspect=fixed;" vertex="1" parent="1">
          <mxGeometry x="-127" y="-22" width="80" height="80" as="geometry" />
        </mxCell>
        <mxCell id="7cvgtdfPw39S4YdQVZ99-10" style="edgeStyle=none;curved=1;rounded=0;orthogonalLoop=1;jettySize=auto;html=1;exitX=1;exitY=0.5;exitDx=0;exitDy=0;entryX=0;entryY=0.5;entryDx=0;entryDy=0;fontSize=12;startSize=8;endSize=8;" edge="1" parent="1" source="7cvgtdfPw39S4YdQVZ99-11" target="7cvgtdfPw39S4YdQVZ99-9">
          <mxGeometry relative="1" as="geometry" />
        </mxCell>
        <mxCell id="7cvgtdfPw39S4YdQVZ99-11" value="&lt;font style=&quot;font-size: 16px;&quot;&gt;user 5&lt;/font&gt;" style="ellipse;whiteSpace=wrap;html=1;aspect=fixed;" vertex="1" parent="1">
          <mxGeometry x="-234" y="72" width="80" height="80" as="geometry" />
        </mxCell>
        <mxCell id="7cvgtdfPw39S4YdQVZ99-12" style="edgeStyle=none;curved=1;rounded=0;orthogonalLoop=1;jettySize=auto;html=1;exitX=0;exitY=1;exitDx=0;exitDy=0;fontSize=12;startSize=8;endSize=8;" edge="1" parent="1" source="7cvgtdfPw39S4YdQVZ99-14" target="7cvgtdfPw39S4YdQVZ99-15">
          <mxGeometry relative="1" as="geometry" />
        </mxCell>
        <mxCell id="7cvgtdfPw39S4YdQVZ99-13" style="edgeStyle=none;curved=1;rounded=0;orthogonalLoop=1;jettySize=auto;html=1;exitX=1;exitY=1;exitDx=0;exitDy=0;entryX=0;entryY=0.5;entryDx=0;entryDy=0;fontSize=12;startSize=8;endSize=8;" edge="1" parent="1" source="7cvgtdfPw39S4YdQVZ99-14" target="7cvgtdfPw39S4YdQVZ99-17">
          <mxGeometry relative="1" as="geometry" />
        </mxCell>
        <mxCell id="7cvgtdfPw39S4YdQVZ99-14" value="&lt;font style=&quot;font-size: 16px;&quot;&gt;user 6&lt;/font&gt;" style="ellipse;whiteSpace=wrap;html=1;aspect=fixed;" vertex="1" parent="1">
          <mxGeometry x="13" y="182" width="80" height="80" as="geometry" />
        </mxCell>
        <mxCell id="7cvgtdfPw39S4YdQVZ99-15" value="&lt;font style=&quot;font-size: 16px;&quot;&gt;user 7&lt;/font&gt;" style="ellipse;whiteSpace=wrap;html=1;aspect=fixed;" vertex="1" parent="1">
          <mxGeometry x="-47" y="320" width="80" height="80" as="geometry" />
        </mxCell>
        <mxCell id="7cvgtdfPw39S4YdQVZ99-16" style="edgeStyle=none;curved=1;rounded=0;orthogonalLoop=1;jettySize=auto;html=1;exitX=0.5;exitY=0;exitDx=0;exitDy=0;entryX=1;entryY=1;entryDx=0;entryDy=0;fontSize=12;startSize=8;endSize=8;" edge="1" parent="1" source="7cvgtdfPw39S4YdQVZ99-17" target="7cvgtdfPw39S4YdQVZ99-7">
          <mxGeometry relative="1" as="geometry" />
        </mxCell>
        <mxCell id="7cvgtdfPw39S4YdQVZ99-17" value="&lt;font style=&quot;font-size: 16px;&quot;&gt;user 8&lt;/font&gt;" style="ellipse;whiteSpace=wrap;html=1;aspect=fixed;" vertex="1" parent="1">
          <mxGeometry x="119" y="306" width="80" height="80" as="geometry" />
        </mxCell>
        <mxCell id="7cvgtdfPw39S4YdQVZ99-18" value="&lt;font style=&quot;font-size: 16px;&quot;&gt;user 9&lt;/font&gt;" style="ellipse;whiteSpace=wrap;html=1;aspect=fixed;" vertex="1" parent="1">
          <mxGeometry x="-88" y="104" width="80" height="80" as="geometry" />
        </mxCell>
        <mxCell id="7cvgtdfPw39S4YdQVZ99-19" style="edgeStyle=none;curved=1;rounded=0;orthogonalLoop=1;jettySize=auto;html=1;exitX=0;exitY=0;exitDx=0;exitDy=0;entryX=0.5;entryY=1;entryDx=0;entryDy=0;fontSize=12;startSize=8;endSize=8;" edge="1" parent="1" source="7cvgtdfPw39S4YdQVZ99-20" target="7cvgtdfPw39S4YdQVZ99-11">
          <mxGeometry relative="1" as="geometry" />
        </mxCell>
        <mxCell id="7cvgtdfPw39S4YdQVZ99-20" value="&lt;font style=&quot;font-size: 16px;&quot;&gt;user 10&lt;/font&gt;" style="ellipse;whiteSpace=wrap;html=1;aspect=fixed;" vertex="1" parent="1">
          <mxGeometry x="-156" y="266" width="80" height="80" as="geometry" />
        </mxCell>
      </root>
    </mxGraphModel>
  </diagram>
  <diagram id="L61hTQ7XXq0Eub2qpz6Y" name="watching">
    <mxGraphModel dx="2677" dy="1357" grid="0" gridSize="10" guides="1" tooltips="1" connect="1" arrows="1" fold="1" page="0" pageScale="1" pageWidth="827" pageHeight="1169" math="0" shadow="0">
      <root>
        <mxCell id="0" />
        <mxCell id="1" parent="0" />
        <mxCell id="cBrZUJiEuT5Oppivpzc2-1" value="&lt;font style=&quot;font-size: 16px;&quot;&gt;user 1&lt;/font&gt;" style="ellipse;whiteSpace=wrap;html=1;aspect=fixed;" vertex="1" parent="1">
          <mxGeometry x="-642" y="516" width="80" height="80" as="geometry" />
        </mxCell>
        <mxCell id="cBrZUJiEuT5Oppivpzc2-2" value="&lt;font style=&quot;font-size: 16px;&quot;&gt;user 2&lt;/font&gt;" style="ellipse;whiteSpace=wrap;html=1;aspect=fixed;" vertex="1" parent="1">
          <mxGeometry x="-1049" y="527" width="80" height="80" as="geometry" />
        </mxCell>
        <mxCell id="cBrZUJiEuT5Oppivpzc2-3" value="&lt;font style=&quot;font-size: 16px;&quot;&gt;user 3&lt;/font&gt;" style="ellipse;whiteSpace=wrap;html=1;aspect=fixed;" vertex="1" parent="1">
          <mxGeometry x="-301" y="527" width="80" height="80" as="geometry" />
        </mxCell>
        <mxCell id="cBrZUJiEuT5Oppivpzc2-4" value="&lt;font style=&quot;font-size: 16px;&quot;&gt;user 4&lt;/font&gt;" style="ellipse;whiteSpace=wrap;html=1;aspect=fixed;" vertex="1" parent="1">
          <mxGeometry x="-92" y="531" width="80" height="80" as="geometry" />
        </mxCell>
        <mxCell id="cBrZUJiEuT5Oppivpzc2-5" value="&lt;font style=&quot;font-size: 16px;&quot;&gt;user 9&lt;/font&gt;" style="ellipse;whiteSpace=wrap;html=1;aspect=fixed;" vertex="1" parent="1">
          <mxGeometry x="-829" y="516" width="80" height="80" as="geometry" />
        </mxCell>
        <mxCell id="cBrZUJiEuT5Oppivpzc2-6" style="edgeStyle=none;curved=1;rounded=0;orthogonalLoop=1;jettySize=auto;html=1;exitX=0.5;exitY=0;exitDx=0;exitDy=0;entryX=0;entryY=1;entryDx=0;entryDy=0;fontSize=12;startSize=8;endSize=8;" edge="1" parent="1" source="cBrZUJiEuT5Oppivpzc2-8" target="cBrZUJiEuT5Oppivpzc2-1">
          <mxGeometry relative="1" as="geometry" />
        </mxCell>
        <mxCell id="cBrZUJiEuT5Oppivpzc2-7" style="edgeStyle=none;curved=1;rounded=0;orthogonalLoop=1;jettySize=auto;html=1;exitX=0.5;exitY=0;exitDx=0;exitDy=0;fontSize=12;startSize=8;endSize=8;" edge="1" parent="1" source="cBrZUJiEuT5Oppivpzc2-8" target="cBrZUJiEuT5Oppivpzc2-5">
          <mxGeometry relative="1" as="geometry" />
        </mxCell>
        <mxCell id="cBrZUJiEuT5Oppivpzc2-8" value="&lt;span style=&quot;font-size: 16px;&quot;&gt;movie 1&lt;/span&gt;" style="whiteSpace=wrap;html=1;aspect=fixed;" vertex="1" parent="1">
          <mxGeometry x="-756" y="667" width="80" height="80" as="geometry" />
        </mxCell>
        <mxCell id="cBrZUJiEuT5Oppivpzc2-9" style="edgeStyle=none;curved=1;rounded=0;orthogonalLoop=1;jettySize=auto;html=1;exitX=0.5;exitY=0;exitDx=0;exitDy=0;entryX=0.5;entryY=1;entryDx=0;entryDy=0;fontSize=12;startSize=8;endSize=8;" edge="1" parent="1" source="cBrZUJiEuT5Oppivpzc2-10" target="cBrZUJiEuT5Oppivpzc2-2">
          <mxGeometry relative="1" as="geometry" />
        </mxCell>
        <mxCell id="cBrZUJiEuT5Oppivpzc2-10" value="&lt;font style=&quot;font-size: 16px;&quot;&gt;movie 2&lt;/font&gt;" style="whiteSpace=wrap;html=1;aspect=fixed;" vertex="1" parent="1">
          <mxGeometry x="-1049" y="674" width="80" height="80" as="geometry" />
        </mxCell>
        <mxCell id="cBrZUJiEuT5Oppivpzc2-11" style="edgeStyle=none;curved=1;rounded=0;orthogonalLoop=1;jettySize=auto;html=1;exitX=0.5;exitY=0;exitDx=0;exitDy=0;entryX=0;entryY=1;entryDx=0;entryDy=0;fontSize=12;startSize=8;endSize=8;" edge="1" parent="1" source="cBrZUJiEuT5Oppivpzc2-12" target="cBrZUJiEuT5Oppivpzc2-3">
          <mxGeometry relative="1" as="geometry" />
        </mxCell>
        <mxCell id="cBrZUJiEuT5Oppivpzc2-12" value="&lt;span style=&quot;font-size: 16px;&quot;&gt;movie 3&lt;/span&gt;" style="whiteSpace=wrap;html=1;aspect=fixed;" vertex="1" parent="1">
          <mxGeometry x="-374" y="667" width="80" height="80" as="geometry" />
        </mxCell>
        <mxCell id="cBrZUJiEuT5Oppivpzc2-13" style="edgeStyle=none;curved=1;rounded=0;orthogonalLoop=1;jettySize=auto;html=1;exitX=0.5;exitY=0;exitDx=0;exitDy=0;entryX=1;entryY=1;entryDx=0;entryDy=0;fontSize=12;startSize=8;endSize=8;" edge="1" parent="1" source="cBrZUJiEuT5Oppivpzc2-14" target="cBrZUJiEuT5Oppivpzc2-3">
          <mxGeometry relative="1" as="geometry" />
        </mxCell>
        <mxCell id="cBrZUJiEuT5Oppivpzc2-14" value="&lt;span style=&quot;font-size: 16px;&quot;&gt;movie 4&lt;/span&gt;" style="whiteSpace=wrap;html=1;aspect=fixed;" vertex="1" parent="1">
          <mxGeometry x="-240" y="667" width="80" height="80" as="geometry" />
        </mxCell>
        <mxCell id="cBrZUJiEuT5Oppivpzc2-15" style="edgeStyle=none;curved=1;rounded=0;orthogonalLoop=1;jettySize=auto;html=1;exitX=0.5;exitY=0;exitDx=0;exitDy=0;entryX=0.5;entryY=1;entryDx=0;entryDy=0;fontSize=12;startSize=8;endSize=8;" edge="1" parent="1" source="cBrZUJiEuT5Oppivpzc2-16" target="cBrZUJiEuT5Oppivpzc2-1">
          <mxGeometry relative="1" as="geometry" />
        </mxCell>
        <mxCell id="cBrZUJiEuT5Oppivpzc2-16" value="&lt;span style=&quot;font-size: 16px;&quot;&gt;movie 5&lt;/span&gt;" style="whiteSpace=wrap;html=1;aspect=fixed;" vertex="1" parent="1">
          <mxGeometry x="-642" y="667" width="80" height="80" as="geometry" />
        </mxCell>
        <mxCell id="cBrZUJiEuT5Oppivpzc2-17" style="edgeStyle=none;curved=1;rounded=0;orthogonalLoop=1;jettySize=auto;html=1;exitX=0.5;exitY=0;exitDx=0;exitDy=0;entryX=0.5;entryY=1;entryDx=0;entryDy=0;fontSize=12;startSize=8;endSize=8;" edge="1" parent="1" source="cBrZUJiEuT5Oppivpzc2-18" target="cBrZUJiEuT5Oppivpzc2-4">
          <mxGeometry relative="1" as="geometry" />
        </mxCell>
        <mxCell id="cBrZUJiEuT5Oppivpzc2-18" value="&lt;span style=&quot;font-size: 16px;&quot;&gt;movie 6&lt;/span&gt;" style="whiteSpace=wrap;html=1;aspect=fixed;" vertex="1" parent="1">
          <mxGeometry x="-92" y="663" width="80" height="80" as="geometry" />
        </mxCell>
        <mxCell id="cBrZUJiEuT5Oppivpzc2-19" style="edgeStyle=none;curved=1;rounded=0;orthogonalLoop=1;jettySize=auto;html=1;exitX=0.5;exitY=0;exitDx=0;exitDy=0;fontSize=12;startSize=8;endSize=8;" edge="1" parent="1" source="cBrZUJiEuT5Oppivpzc2-20" target="cBrZUJiEuT5Oppivpzc2-4">
          <mxGeometry relative="1" as="geometry" />
        </mxCell>
        <mxCell id="cBrZUJiEuT5Oppivpzc2-20" value="&lt;span style=&quot;font-size: 16px;&quot;&gt;movie 7&lt;/span&gt;" style="whiteSpace=wrap;html=1;aspect=fixed;" vertex="1" parent="1">
          <mxGeometry x="49" y="663" width="80" height="80" as="geometry" />
        </mxCell>
        <mxCell id="cBrZUJiEuT5Oppivpzc2-21" style="edgeStyle=none;curved=1;rounded=0;orthogonalLoop=1;jettySize=auto;html=1;exitX=0.5;exitY=0;exitDx=0;exitDy=0;entryX=1;entryY=1;entryDx=0;entryDy=0;fontSize=12;startSize=8;endSize=8;" edge="1" parent="1" source="cBrZUJiEuT5Oppivpzc2-22" target="cBrZUJiEuT5Oppivpzc2-1">
          <mxGeometry relative="1" as="geometry" />
        </mxCell>
        <mxCell id="cBrZUJiEuT5Oppivpzc2-22" value="&lt;span style=&quot;font-size: 16px;&quot;&gt;movie 8&lt;/span&gt;" style="whiteSpace=wrap;html=1;aspect=fixed;" vertex="1" parent="1">
          <mxGeometry x="-522" y="667" width="80" height="80" as="geometry" />
        </mxCell>
        <mxCell id="cBrZUJiEuT5Oppivpzc2-23" style="edgeStyle=none;curved=1;rounded=0;orthogonalLoop=1;jettySize=auto;html=1;exitX=0.5;exitY=0;exitDx=0;exitDy=0;entryX=1;entryY=0.5;entryDx=0;entryDy=0;fontSize=12;startSize=8;endSize=8;" edge="1" parent="1" source="cBrZUJiEuT5Oppivpzc2-24" target="cBrZUJiEuT5Oppivpzc2-4">
          <mxGeometry relative="1" as="geometry" />
        </mxCell>
        <mxCell id="cBrZUJiEuT5Oppivpzc2-24" value="&lt;span style=&quot;font-size: 16px;&quot;&gt;movie 9&lt;/span&gt;" style="whiteSpace=wrap;html=1;aspect=fixed;" vertex="1" parent="1">
          <mxGeometry x="188" y="663" width="80" height="80" as="geometry" />
        </mxCell>
        <mxCell id="cBrZUJiEuT5Oppivpzc2-25" style="edgeStyle=none;curved=1;rounded=0;orthogonalLoop=1;jettySize=auto;html=1;exitX=0.5;exitY=0;exitDx=0;exitDy=0;fontSize=12;startSize=8;endSize=8;" edge="1" parent="1" source="cBrZUJiEuT5Oppivpzc2-26" target="cBrZUJiEuT5Oppivpzc2-5">
          <mxGeometry relative="1" as="geometry" />
        </mxCell>
        <mxCell id="cBrZUJiEuT5Oppivpzc2-26" value="&lt;span style=&quot;font-size: 16px;&quot;&gt;movie 10&lt;/span&gt;" style="whiteSpace=wrap;html=1;aspect=fixed;" vertex="1" parent="1">
          <mxGeometry x="-912" y="667" width="80" height="80" as="geometry" />
        </mxCell>
      </root>
    </mxGraphModel>
  </diagram>
  <diagram id="z-CzSBcsQLF1A27J8vP1" name="describing">
    <mxGraphModel dx="3077" dy="1357" grid="0" gridSize="10" guides="1" tooltips="1" connect="1" arrows="1" fold="1" page="0" pageScale="1" pageWidth="827" pageHeight="1169" math="0" shadow="0">
      <root>
        <mxCell id="0" />
        <mxCell id="1" parent="0" />
        <mxCell id="v3JO3-TO89YgaWOwzdI5-1" value="&lt;span style=&quot;font-size: 16px;&quot;&gt;genre 1&lt;/span&gt;" style="ellipse;whiteSpace=wrap;html=1;aspect=fixed;" vertex="1" parent="1">
          <mxGeometry x="-522" y="516" width="80" height="80" as="geometry" />
        </mxCell>
        <mxCell id="v3JO3-TO89YgaWOwzdI5-2" value="&lt;span style=&quot;font-size: 16px;&quot;&gt;genre 6&lt;/span&gt;" style="ellipse;whiteSpace=wrap;html=1;aspect=fixed;" vertex="1" parent="1">
          <mxGeometry x="-1049" y="527" width="80" height="80" as="geometry" />
        </mxCell>
        <mxCell id="v3JO3-TO89YgaWOwzdI5-3" value="&lt;span style=&quot;font-size: 16px;&quot;&gt;genre 3&lt;/span&gt;" style="ellipse;whiteSpace=wrap;html=1;aspect=fixed;" vertex="1" parent="1">
          <mxGeometry x="-638" y="531" width="80" height="80" as="geometry" />
        </mxCell>
        <mxCell id="v3JO3-TO89YgaWOwzdI5-4" value="&lt;span style=&quot;font-size: 16px;&quot;&gt;genre 2&lt;/span&gt;" style="ellipse;whiteSpace=wrap;html=1;aspect=fixed;" vertex="1" parent="1">
          <mxGeometry x="-908" y="527" width="80" height="80" as="geometry" />
        </mxCell>
        <mxCell id="v3JO3-TO89YgaWOwzdI5-5" style="edgeStyle=none;curved=1;rounded=0;orthogonalLoop=1;jettySize=auto;html=1;exitX=0.5;exitY=0;exitDx=0;exitDy=0;entryX=0.5;entryY=1;entryDx=0;entryDy=0;fontSize=12;startSize=8;endSize=8;" edge="1" parent="1" source="v3JO3-TO89YgaWOwzdI5-6" target="v3JO3-TO89YgaWOwzdI5-24">
          <mxGeometry relative="1" as="geometry" />
        </mxCell>
        <mxCell id="v3JO3-TO89YgaWOwzdI5-6" value="&lt;span style=&quot;font-size: 16px;&quot;&gt;movie 3&lt;/span&gt;" style="whiteSpace=wrap;html=1;aspect=fixed;" vertex="1" parent="1">
          <mxGeometry x="-756" y="667" width="80" height="80" as="geometry" />
        </mxCell>
        <mxCell id="v3JO3-TO89YgaWOwzdI5-7" style="edgeStyle=none;curved=1;rounded=0;orthogonalLoop=1;jettySize=auto;html=1;exitX=0.5;exitY=0;exitDx=0;exitDy=0;entryX=0.5;entryY=1;entryDx=0;entryDy=0;fontSize=12;startSize=8;endSize=8;" edge="1" parent="1" source="v3JO3-TO89YgaWOwzdI5-9" target="v3JO3-TO89YgaWOwzdI5-2">
          <mxGeometry relative="1" as="geometry" />
        </mxCell>
        <mxCell id="v3JO3-TO89YgaWOwzdI5-8" style="edgeStyle=none;curved=1;rounded=0;orthogonalLoop=1;jettySize=auto;html=1;exitX=0.5;exitY=0;exitDx=0;exitDy=0;entryX=0.5;entryY=1;entryDx=0;entryDy=0;fontSize=12;startSize=8;endSize=8;" edge="1" parent="1" source="v3JO3-TO89YgaWOwzdI5-9" target="v3JO3-TO89YgaWOwzdI5-26">
          <mxGeometry relative="1" as="geometry" />
        </mxCell>
        <mxCell id="v3JO3-TO89YgaWOwzdI5-9" value="&lt;span style=&quot;font-size: 16px;&quot;&gt;movie 1&lt;/span&gt;" style="whiteSpace=wrap;html=1;aspect=fixed;" vertex="1" parent="1">
          <mxGeometry x="-1113" y="663" width="80" height="80" as="geometry" />
        </mxCell>
        <mxCell id="v3JO3-TO89YgaWOwzdI5-10" style="edgeStyle=none;curved=1;rounded=0;orthogonalLoop=1;jettySize=auto;html=1;exitX=0.5;exitY=0;exitDx=0;exitDy=0;entryX=0.5;entryY=1;entryDx=0;entryDy=0;fontSize=12;startSize=8;endSize=8;" edge="1" parent="1" source="v3JO3-TO89YgaWOwzdI5-11" target="v3JO3-TO89YgaWOwzdI5-25">
          <mxGeometry relative="1" as="geometry" />
        </mxCell>
        <mxCell id="v3JO3-TO89YgaWOwzdI5-11" value="&lt;span style=&quot;font-size: 16px;&quot;&gt;movie 6&lt;/span&gt;" style="whiteSpace=wrap;html=1;aspect=fixed;" vertex="1" parent="1">
          <mxGeometry x="-374" y="667" width="80" height="80" as="geometry" />
        </mxCell>
        <mxCell id="v3JO3-TO89YgaWOwzdI5-12" style="edgeStyle=none;curved=1;rounded=0;orthogonalLoop=1;jettySize=auto;html=1;exitX=0.5;exitY=0;exitDx=0;exitDy=0;entryX=1;entryY=1;entryDx=0;entryDy=0;fontSize=12;startSize=8;endSize=8;" edge="1" parent="1" source="v3JO3-TO89YgaWOwzdI5-13" target="v3JO3-TO89YgaWOwzdI5-4">
          <mxGeometry relative="1" as="geometry" />
        </mxCell>
        <mxCell id="v3JO3-TO89YgaWOwzdI5-13" value="&lt;span style=&quot;font-size: 16px;&quot;&gt;movie 7&lt;/span&gt;" style="whiteSpace=wrap;html=1;aspect=fixed;" vertex="1" parent="1">
          <mxGeometry x="-852" y="667" width="80" height="80" as="geometry" />
        </mxCell>
        <mxCell id="v3JO3-TO89YgaWOwzdI5-14" style="edgeStyle=none;curved=1;rounded=0;orthogonalLoop=1;jettySize=auto;html=1;exitX=0.5;exitY=0;exitDx=0;exitDy=0;fontSize=12;startSize=8;endSize=8;" edge="1" parent="1" source="v3JO3-TO89YgaWOwzdI5-15" target="v3JO3-TO89YgaWOwzdI5-3">
          <mxGeometry relative="1" as="geometry" />
        </mxCell>
        <mxCell id="v3JO3-TO89YgaWOwzdI5-15" value="&lt;span style=&quot;font-size: 16px;&quot;&gt;movie 4&lt;/span&gt;" style="whiteSpace=wrap;html=1;aspect=fixed;" vertex="1" parent="1">
          <mxGeometry x="-642" y="667" width="80" height="80" as="geometry" />
        </mxCell>
        <mxCell id="v3JO3-TO89YgaWOwzdI5-16" style="edgeStyle=none;curved=1;rounded=0;orthogonalLoop=1;jettySize=auto;html=1;exitX=0.5;exitY=0;exitDx=0;exitDy=0;entryX=0.5;entryY=1;entryDx=0;entryDy=0;fontSize=12;startSize=8;endSize=8;" edge="1" parent="1" source="v3JO3-TO89YgaWOwzdI5-17" target="v3JO3-TO89YgaWOwzdI5-27">
          <mxGeometry relative="1" as="geometry" />
        </mxCell>
        <mxCell id="v3JO3-TO89YgaWOwzdI5-17" value="&lt;font style=&quot;font-size: 16px;&quot;&gt;movie 9&lt;/font&gt;" style="whiteSpace=wrap;html=1;aspect=fixed;" vertex="1" parent="1">
          <mxGeometry x="-1490" y="669" width="80" height="80" as="geometry" />
        </mxCell>
        <mxCell id="v3JO3-TO89YgaWOwzdI5-18" style="edgeStyle=none;curved=1;rounded=0;orthogonalLoop=1;jettySize=auto;html=1;exitX=0.5;exitY=0;exitDx=0;exitDy=0;entryX=0.5;entryY=1;entryDx=0;entryDy=0;fontSize=12;startSize=8;endSize=8;" edge="1" parent="1" source="v3JO3-TO89YgaWOwzdI5-19" target="v3JO3-TO89YgaWOwzdI5-1">
          <mxGeometry relative="1" as="geometry" />
        </mxCell>
        <mxCell id="v3JO3-TO89YgaWOwzdI5-19" value="&lt;span style=&quot;font-size: 16px;&quot;&gt;movie 5&lt;/span&gt;" style="whiteSpace=wrap;html=1;aspect=fixed;" vertex="1" parent="1">
          <mxGeometry x="-522" y="667" width="80" height="80" as="geometry" />
        </mxCell>
        <mxCell id="v3JO3-TO89YgaWOwzdI5-20" style="edgeStyle=none;curved=1;rounded=0;orthogonalLoop=1;jettySize=auto;html=1;exitX=0.5;exitY=0;exitDx=0;exitDy=0;entryX=0.5;entryY=1;entryDx=0;entryDy=0;fontSize=12;startSize=8;endSize=8;" edge="1" parent="1" source="v3JO3-TO89YgaWOwzdI5-21" target="v3JO3-TO89YgaWOwzdI5-26">
          <mxGeometry relative="1" as="geometry" />
        </mxCell>
        <mxCell id="v3JO3-TO89YgaWOwzdI5-21" value="&lt;span style=&quot;font-size: 16px;&quot;&gt;movie 10&lt;/span&gt;" style="whiteSpace=wrap;html=1;aspect=fixed;" vertex="1" parent="1">
          <mxGeometry x="-1233" y="663" width="80" height="80" as="geometry" />
        </mxCell>
        <mxCell id="v3JO3-TO89YgaWOwzdI5-22" style="edgeStyle=none;curved=1;rounded=0;orthogonalLoop=1;jettySize=auto;html=1;exitX=0.5;exitY=0;exitDx=0;exitDy=0;fontSize=12;startSize=8;endSize=8;entryX=0;entryY=1;entryDx=0;entryDy=0;" edge="1" parent="1" source="v3JO3-TO89YgaWOwzdI5-23" target="v3JO3-TO89YgaWOwzdI5-4">
          <mxGeometry relative="1" as="geometry" />
        </mxCell>
        <mxCell id="v3JO3-TO89YgaWOwzdI5-23" value="&lt;span style=&quot;font-size: 16px;&quot;&gt;movie 2&lt;/span&gt;" style="whiteSpace=wrap;html=1;aspect=fixed;" vertex="1" parent="1">
          <mxGeometry x="-963" y="669" width="80" height="80" as="geometry" />
        </mxCell>
        <mxCell id="v3JO3-TO89YgaWOwzdI5-24" value="&lt;span style=&quot;font-size: 16px;&quot;&gt;genre 5&lt;/span&gt;" style="ellipse;whiteSpace=wrap;html=1;aspect=fixed;" vertex="1" parent="1">
          <mxGeometry x="-754" y="527" width="80" height="80" as="geometry" />
        </mxCell>
        <mxCell id="v3JO3-TO89YgaWOwzdI5-25" value="&lt;span style=&quot;font-size: 16px;&quot;&gt;genre 4&lt;/span&gt;" style="ellipse;whiteSpace=wrap;html=1;aspect=fixed;" vertex="1" parent="1">
          <mxGeometry x="-374" y="534" width="80" height="80" as="geometry" />
        </mxCell>
        <mxCell id="v3JO3-TO89YgaWOwzdI5-26" value="&lt;span style=&quot;font-size: 16px;&quot;&gt;genre 9&lt;/span&gt;" style="ellipse;whiteSpace=wrap;html=1;aspect=fixed;" vertex="1" parent="1">
          <mxGeometry x="-1183" y="534" width="80" height="80" as="geometry" />
        </mxCell>
        <mxCell id="v3JO3-TO89YgaWOwzdI5-27" value="&lt;font style=&quot;font-size: 16px;&quot;&gt;genre 8&lt;/font&gt;" style="ellipse;whiteSpace=wrap;html=1;aspect=fixed;" vertex="1" parent="1">
          <mxGeometry x="-1490" y="530" width="80" height="80" as="geometry" />
        </mxCell>
        <mxCell id="v3JO3-TO89YgaWOwzdI5-28" style="edgeStyle=none;curved=1;rounded=0;orthogonalLoop=1;jettySize=auto;html=1;exitX=0.5;exitY=0;exitDx=0;exitDy=0;entryX=0.5;entryY=1;entryDx=0;entryDy=0;fontSize=12;startSize=8;endSize=8;" edge="1" parent="1" source="v3JO3-TO89YgaWOwzdI5-29" target="v3JO3-TO89YgaWOwzdI5-30">
          <mxGeometry relative="1" as="geometry" />
        </mxCell>
        <mxCell id="v3JO3-TO89YgaWOwzdI5-29" value="&lt;span style=&quot;font-size: 16px;&quot;&gt;movie 8&lt;/span&gt;" style="whiteSpace=wrap;html=1;aspect=fixed;" vertex="1" parent="1">
          <mxGeometry x="-1341" y="669" width="80" height="80" as="geometry" />
        </mxCell>
        <mxCell id="v3JO3-TO89YgaWOwzdI5-30" value="&lt;span style=&quot;font-size: 16px;&quot;&gt;genre 7&lt;/span&gt;" style="ellipse;whiteSpace=wrap;html=1;aspect=fixed;" vertex="1" parent="1">
          <mxGeometry x="-1341" y="531" width="80" height="80" as="geometry" />
        </mxCell>
      </root>
    </mxGraphModel>
  </diagram>
</mxfile>
